<?xml version="1.0" encoding="UTF-8" standalone="no"?>
<svg
   version="1.0"
   width="1920.000000pt"
   height="1920.000000pt"
   viewBox="0 0 1920.000000 1920.000000"
   preserveAspectRatio="xMidYMid meet"
   id="svg75"
   sodipodi:docname="favicon.svg"
   inkscape:version="1.4.2 (f4327f4, 2025-05-13)"
   xmlns:inkscape="http://www.inkscape.org/namespaces/inkscape"
   xmlns:sodipodi="http://sodipodi.sourceforge.net/DTD/sodipodi-0.dtd"
   xmlns:xlink="http://www.w3.org/1999/xlink"
   xmlns="http://www.w3.org/2000/svg"
   xmlns:svg="http://www.w3.org/2000/svg">
  <sodipodi:namedview
     id="namedview75"
     pagecolor="#505050"
     bordercolor="#eeeeee"
     borderopacity="1"
     inkscape:showpageshadow="0"
     inkscape:pageopacity="0"
     inkscape:pagecheckerboard="0"
     inkscape:deskcolor="#505050"
     inkscape:document-units="pt"
     inkscape:zoom="0.30585938"
     inkscape:cx="1280"
     inkscape:cy="1280"
     inkscape:window-width="1920"
     inkscape:window-height="1001"
     inkscape:window-x="-9"
     inkscape:window-y="-9"
     inkscape:window-maximized="1"
     inkscape:current-layer="svg75" />
  <metadata
     id="metadata1">Created by potrace 1.10, written by Peter Selinger 2001-2011</metadata>
  <defs
     id="defs2">
    <linearGradient
       id="mythicGradient"
       x1="0%"
       y1="0%"
       x2="100%"
       y2="0%">
      <stop
         offset="0%"
         stop-color="#f59105"
         id="stop1" />
      <!-- mythic (gold) -->
      <stop
         offset="100%"
         stop-color="#b43219"
         id="stop2" />
      <!-- alt-mythic (red) -->
    </linearGradient>
    <linearGradient
       inkscape:collect="always"
       xlink:href="#mythicGradient"
       id="linearGradient75"
       x1="6507.3896"
       y1="19600.034"
       x2="6557.3945"
       y2="19600.034"
       gradientTransform="scale(1.0240348,0.97652934)"
       gradientUnits="userSpaceOnUse" />
    <linearGradient
       inkscape:collect="always"
       xlink:href="#mythicGradient"
       id="linearGradient76"
       x1="4544.5887"
       y1="19432.009"
       x2="7210.6674"
       y2="19432.009"
       gradientTransform="scale(1.1500436,0.86953227)"
       gradientUnits="userSpaceOnUse" />
    <linearGradient
       inkscape:collect="always"
       xlink:href="#mythicGradient"
       id="linearGradient77"
       x1="9816.425"
       y1="14904.868"
       x2="12848.83"
       y2="14904.868"
       gradientTransform="scale(1.0012072,0.99879423)"
       gradientUnits="userSpaceOnUse" />
    <linearGradient
       inkscape:collect="always"
       xlink:href="#mythicGradient"
       id="linearGradient78"
       x1="635.07833"
       y1="14918.513"
       x2="3647.6456"
       y2="14918.513"
       gradientTransform="scale(1.0020162,0.99798785)"
       gradientUnits="userSpaceOnUse" />
    <linearGradient
       inkscape:collect="always"
       xlink:href="#mythicGradient"
       id="linearGradient79"
       x1="1756.2101"
       y1="44466.797"
       x2="3157.3314"
       y2="44466.797"
       gradientTransform="scale(2.7540029,0.36310782)"
       gradientUnits="userSpaceOnUse" />
    <linearGradient
       inkscape:collect="always"
       xlink:href="#mythicGradient"
       id="linearGradient80"
       x1="2332.9392"
       y1="9763.5743"
       x2="10021.138"
       y2="9763.5743"
       gradientTransform="scale(1.095185,0.91308774)"
       gradientUnits="userSpaceOnUse" />
    <linearGradient
       inkscape:collect="always"
       xlink:href="#mythicGradient"
       id="linearGradient81"
       x1="3186.108"
       y1="9308.7877"
       x2="9857.1722"
       y2="9308.7877"
       gradientTransform="scale(1.0373158,0.96402662)"
       gradientUnits="userSpaceOnUse" />
    <linearGradient
       inkscape:collect="always"
       xlink:href="#mythicGradient"
       id="linearGradient82"
       x1="6714.4965"
       y1="11186.012"
       x2="7937.5422"
       y2="11186.012"
       gradientTransform="scale(0.93901308,1.0649479)"
       gradientUnits="userSpaceOnUse" />
    <linearGradient
       inkscape:collect="always"
       xlink:href="#mythicGradient"
       id="linearGradient83"
       x1="11072.075"
       y1="5102.7383"
       x2="11598.184"
       y2="5102.7383"
       gradientTransform="scale(0.64104862,1.5599441)"
       gradientUnits="userSpaceOnUse" />
    <linearGradient
       inkscape:collect="always"
       xlink:href="#mythicGradient"
       id="linearGradient84"
       x1="6577.3724"
       y1="7448.9622"
       x2="7343.1925"
       y2="7448.9622"
       gradientTransform="scale(0.9362533,1.068087)"
       gradientUnits="userSpaceOnUse" />
    <linearGradient
       inkscape:collect="always"
       xlink:href="#mythicGradient"
       id="linearGradient85"
       x1="8786.1368"
       y1="6894.3369"
       x2="9525.1475"
       y2="6894.3369"
       gradientTransform="scale(0.87035887,1.1489514)"
       gradientUnits="userSpaceOnUse" />
    <linearGradient
       inkscape:collect="always"
       xlink:href="#mythicGradient"
       id="linearGradient86"
       x1="5678.1008"
       y1="7298.2233"
       x2="6456.3708"
       y2="7298.2233"
       gradientTransform="scale(0.92149284,1.0851956)"
       gradientUnits="userSpaceOnUse" />
    <linearGradient
       inkscape:collect="always"
       xlink:href="#mythicGradient"
       id="linearGradient87"
       x1="9258.9141"
       y1="7214.1521"
       x2="10054.915"
       y2="7214.1521"
       gradientTransform="scale(0.91705697,1.0904448)"
       gradientUnits="userSpaceOnUse" />
    <linearGradient
       inkscape:collect="always"
       xlink:href="#mythicGradient"
       id="linearGradient88"
       x1="5078.3607"
       y1="6893.8585"
       x2="5814.3634"
       y2="6893.8585"
       gradientTransform="scale(0.87652365,1.1408705)"
       gradientUnits="userSpaceOnUse" />
    <linearGradient
       inkscape:collect="always"
       xlink:href="#mythicGradient"
       id="linearGradient89"
       x1="8712.6025"
       y1="5837.3037"
       x2="8930.457"
       y2="5837.3037"
       gradientTransform="scale(0.78084895,1.2806574)"
       gradientUnits="userSpaceOnUse" />
    <linearGradient
       inkscape:collect="always"
       xlink:href="#mythicGradient"
       id="linearGradient90"
       x1="9802.5496"
       y1="4410.4847"
       x2="9967.2405"
       y2="4410.4847"
       gradientTransform="scale(0.59072636,1.6928312)"
       gradientUnits="userSpaceOnUse" />
    <linearGradient
       inkscape:collect="always"
       xlink:href="#mythicGradient"
       id="linearGradient91"
       x1="5114.4998"
       y1="8589.8016"
       x2="5434.9058"
       y2="8589.8016"
       gradientTransform="scale(1.1506501,0.86907393)"
       gradientUnits="userSpaceOnUse" />
    <linearGradient
       inkscape:collect="always"
       xlink:href="#mythicGradient"
       id="linearGradient92"
       x1="12881.83"
       y1="4590.3351"
       x2="13065.545"
       y2="4590.3351"
       gradientTransform="scale(0.61640416,1.6223122)"
       gradientUnits="userSpaceOnUse" />
    <linearGradient
       inkscape:collect="always"
       xlink:href="#mythicGradient"
       id="linearGradient93"
       x1="5274.9141"
       y1="7622.92"
       x2="5571.8445"
       y2="7622.92"
       gradientTransform="scale(1.0238979,0.97665986)"
       gradientUnits="userSpaceOnUse" />
    <linearGradient
       inkscape:collect="always"
       xlink:href="#mythicGradient"
       id="linearGradient94"
       x1="12845.063"
       y1="4777.6274"
       x2="13025.926"
       y2="4777.6274"
       gradientTransform="scale(0.64272862,1.5558666)"
       gradientUnits="userSpaceOnUse" />
    <linearGradient
       inkscape:collect="always"
       xlink:href="#mythicGradient"
       id="linearGradient95"
       x1="4464.5523"
       y1="8777.5737"
       x2="4521.8846"
       y2="8777.5737"
       gradientTransform="scale(1.1466458,0.87210888)"
       gradientUnits="userSpaceOnUse" />
    <linearGradient
       inkscape:collect="always"
       xlink:href="#mythicGradient"
       id="linearGradient96"
       x1="7130.615"
       y1="7944.4227"
       x2="7366.1734"
       y2="7944.4227"
       gradientTransform="scale(1.0637231,0.94009426)"
       gradientUnits="userSpaceOnUse" />
    <linearGradient
       inkscape:collect="always"
       xlink:href="#mythicGradient"
       id="linearGradient97"
       x1="4745"
       y1="7625"
       x2="4805"
       y2="7625"
       gradientUnits="userSpaceOnUse" />
    <linearGradient
       inkscape:collect="always"
       xlink:href="#mythicGradient"
       id="linearGradient98"
       x1="5872.3008"
       y1="6371.8921"
       x2="5942.3398"
       y2="6371.8921"
       gradientTransform="scale(0.83868319,1.1923453)"
       gradientUnits="userSpaceOnUse" />
    <linearGradient
       inkscape:collect="always"
       xlink:href="#mythicGradient"
       id="linearGradient99"
       x1="8454.5369"
       y1="7556.3223"
       x2="8824.4763"
       y2="7556.3223"
       gradientTransform="scale(1.0315798,0.96938692)"
       gradientUnits="userSpaceOnUse" />
    <linearGradient
       inkscape:collect="always"
       xlink:href="#mythicGradient"
       id="linearGradient100"
       x1="9187.5029"
       y1="7325.8957"
       x2="9241.6389"
       y2="7325.8957"
       gradientTransform="scale(0.96054391,1.0410768)"
       gradientUnits="userSpaceOnUse" />
    <linearGradient
       inkscape:collect="always"
       xlink:href="#mythicGradient"
       id="linearGradient101"
       x1="7023.8022"
       y1="6869.2966"
       x2="7212.1248"
       y2="6869.2966"
       gradientTransform="scale(0.91955952,1.0874772)"
       gradientUnits="userSpaceOnUse" />
    <linearGradient
       inkscape:collect="always"
       xlink:href="#mythicGradient"
       id="linearGradient102"
       x1="9238.5999"
       y1="5148.2694"
       x2="9367.2218"
       y2="5148.2694"
       gradientTransform="scale(0.68898087,1.4514191)"
       gradientUnits="userSpaceOnUse" />
    <linearGradient
       inkscape:collect="always"
       xlink:href="#mythicGradient"
       id="linearGradient103"
       x1="8265.6699"
       y1="5990.334"
       x2="8408.3101"
       y2="5990.334"
       gradientTransform="scale(0.80031183,1.249513)"
       gradientUnits="userSpaceOnUse" />
    <linearGradient
       inkscape:collect="always"
       xlink:href="#mythicGradient"
       id="linearGradient104"
       x1="7151.1103"
       y1="7283.2107"
       x2="7336.8918"
       y2="7283.2107"
       gradientTransform="scale(0.97440774,1.0262644)"
       gradientUnits="userSpaceOnUse" />
    <linearGradient
       inkscape:collect="always"
       xlink:href="#mythicGradient"
       id="linearGradient105"
       x1="10596.302"
       y1="5042.8785"
       x2="10724.356"
       y2="5042.8785"
       gradientTransform="scale(0.67463257,1.4822883)"
       gradientUnits="userSpaceOnUse" />
    <linearGradient
       inkscape:collect="always"
       xlink:href="#mythicGradient"
       id="linearGradient106"
       x1="6971.3749"
       y1="7749.5956"
       x2="7168.229"
       y2="7749.5956"
       gradientTransform="scale(1.0379133,0.96347164)"
       gradientUnits="userSpaceOnUse" />
    <linearGradient
       inkscape:collect="always"
       xlink:href="#mythicGradient"
       id="linearGradient107"
       x1="8290.8664"
       y1="6689.4396"
       x2="8472.3241"
       y2="6689.4396"
       gradientTransform="scale(0.8970384,1.1147795)"
       gradientUnits="userSpaceOnUse" />
    <linearGradient
       inkscape:collect="always"
       xlink:href="#mythicGradient"
       id="linearGradient108"
       x1="7674.3382"
       y1="6074.4128"
       x2="7817.7034"
       y2="6074.4128"
       gradientTransform="scale(0.81249224,1.230781)"
       gradientUnits="userSpaceOnUse" />
    <linearGradient
       inkscape:collect="always"
       xlink:href="#mythicGradient"
       id="linearGradient109"
       x1="6703.8337"
       y1="7105.0628"
       x2="6786.9302"
       y2="7105.0628"
       gradientTransform="scale(0.93901495,1.0649458)"
       gradientUnits="userSpaceOnUse" />
    <linearGradient
       inkscape:collect="always"
       xlink:href="#mythicGradient"
       id="linearGradient110"
       x1="9325.0985"
       y1="5389.3822"
       x2="9454.1537"
       y2="5389.3822"
       gradientTransform="scale(0.72093787,1.3870821)"
       gradientUnits="userSpaceOnUse" />
    <linearGradient
       inkscape:collect="always"
       xlink:href="#mythicGradient"
       id="linearGradient111"
       x1="4382.1747"
       y1="7268.0721"
       x2="4445.1093"
       y2="7268.0721"
       gradientTransform="scale(0.95948146,1.0422296)"
       gradientUnits="userSpaceOnUse" />
    <linearGradient
       inkscape:collect="always"
       xlink:href="#mythicGradient"
       id="linearGradient112"
       x1="10211.092"
       y1="5759.2808"
       x2="10349.623"
       y2="5759.2808"
       gradientTransform="scale(0.77155292,1.2960874)"
       gradientUnits="userSpaceOnUse" />
    <linearGradient
       inkscape:collect="always"
       xlink:href="#mythicGradient"
       id="linearGradient113"
       x1="8102.345"
       y1="8422.4486"
       x2="8190.4413"
       y2="8422.4486"
       gradientTransform="scale(1.1133442,0.89819485)"
       gradientUnits="userSpaceOnUse" />
    <linearGradient
       inkscape:collect="always"
       xlink:href="#mythicGradient"
       id="linearGradient114"
       x1="14955.112"
       y1="4224.4062"
       x2="15079.186"
       y2="4224.4062"
       gradientTransform="scale(0.56965939,1.7554349)"
       gradientUnits="userSpaceOnUse" />
    <linearGradient
       inkscape:collect="always"
       xlink:href="#mythicGradient"
       id="linearGradient115"
       x1="3965.0691"
       y1="7537.7068"
       x2="4052.2932"
       y2="7537.7068"
       gradientUnits="userSpaceOnUse" />
    <linearGradient
       inkscape:collect="always"
       xlink:href="#mythicGradient"
       id="linearGradient116"
       x1="5682.7516"
       y1="6171.745"
       x2="5873.7204"
       y2="6171.745"
       gradientTransform="scale(0.83445428,1.198388)"
       gradientUnits="userSpaceOnUse" />
    <linearGradient
       inkscape:collect="always"
       xlink:href="#mythicGradient"
       id="linearGradient117"
       x1="3503.3107"
       y1="10360.607"
       x2="3832.5288"
       y2="10360.607"
       gradientTransform="scale(1.3972498,0.71569166)"
       gradientUnits="userSpaceOnUse" />
    <linearGradient
       inkscape:collect="always"
       xlink:href="#mythicGradient"
       id="linearGradient118"
       x1="8587.2956"
       y1="6972.9403"
       x2="8752.8467"
       y2="6972.9403"
       gradientTransform="scale(0.93626683,1.0680716)"
       gradientUnits="userSpaceOnUse" />
    <linearGradient
       inkscape:collect="always"
       xlink:href="#mythicGradient"
       id="linearGradient119"
       x1="9534.6757"
       y1="6506.0802"
       x2="9716.0483"
       y2="6506.0802"
       gradientTransform="scale(0.87742456,1.1396991)"
       gradientUnits="userSpaceOnUse" />
    <linearGradient
       inkscape:collect="always"
       xlink:href="#mythicGradient"
       id="linearGradient120"
       x1="9425"
       y1="7565"
       x2="9485"
       y2="7565"
       gradientUnits="userSpaceOnUse" />
    <linearGradient
       inkscape:collect="always"
       xlink:href="#mythicGradient"
       id="linearGradient121"
       x1="5559.5224"
       y1="5042.4033"
       x2="5752.2444"
       y2="5042.4033"
       gradientTransform="scale(0.6883827,1.4526803)"
       gradientUnits="userSpaceOnUse" />
    <linearGradient
       inkscape:collect="always"
       xlink:href="#mythicGradient"
       id="linearGradient122"
       x1="4407.4526"
       y1="7598.4502"
       x2="4617.2871"
       y2="7598.4502"
       gradientTransform="scale(1.0282074,0.97256646)"
       gradientUnits="userSpaceOnUse" />
    <linearGradient
       inkscape:collect="always"
       xlink:href="#mythicGradient"
       id="linearGradient123"
       x1="9371.5491"
       y1="6793.6126"
       x2="9533.9592"
       y2="6793.6126"
       gradientTransform="scale(0.91619859,1.0914664)"
       gradientUnits="userSpaceOnUse" />
    <linearGradient
       inkscape:collect="always"
       xlink:href="#mythicGradient"
       id="linearGradient124"
       x1="3576.8346"
       y1="7439.9137"
       x2="3634.5908"
       y2="7439.9137"
       gradientTransform="scale(0.99109978,1.0089801)"
       gradientUnits="userSpaceOnUse" />
    <linearGradient
       inkscape:collect="always"
       xlink:href="#mythicGradient"
       id="linearGradient125"
       x1="3238.6501"
       y1="9197.7287"
       x2="3509.5174"
       y2="9197.7287"
       gradientTransform="scale(1.2520649,0.79868066)"
       gradientUnits="userSpaceOnUse" />
    <linearGradient
       inkscape:collect="always"
       xlink:href="#mythicGradient"
       id="linearGradient126"
       x1="4365.7397"
       y1="7366.8329"
       x2="4545.0579"
       y2="7366.8329"
       gradientTransform="scale(0.99753999,1.0024661)"
       gradientUnits="userSpaceOnUse" />
    <linearGradient
       inkscape:collect="always"
       xlink:href="#mythicGradient"
       id="linearGradient127"
       x1="10267.405"
       y1="6592.3304"
       x2="10346.777"
       y2="6592.3304"
       gradientTransform="scale(0.8819171,1.1338934)"
       gradientUnits="userSpaceOnUse" />
    <linearGradient
       inkscape:collect="always"
       xlink:href="#mythicGradient"
       id="linearGradient128"
       x1="8165.7064"
       y1="8216.9807"
       x2="8399.9457"
       y2="8216.9807"
       gradientTransform="scale(1.1169798,0.89527131)"
       gradientUnits="userSpaceOnUse" />
    <linearGradient
       inkscape:collect="always"
       xlink:href="#mythicGradient"
       id="linearGradient129"
       x1="8951.2063"
       y1="8089.2592"
       x2="9282.3613"
       y2="8089.2592"
       gradientTransform="scale(1.1132578,0.89826456)"
       gradientUnits="userSpaceOnUse" />
    <linearGradient
       inkscape:collect="always"
       xlink:href="#mythicGradient"
       id="linearGradient130"
       x1="8722.4933"
       y1="7997.5158"
       x2="8791.6285"
       y2="7997.5158"
       gradientTransform="scale(1.069199,0.93527963)"
       gradientUnits="userSpaceOnUse" />
    <linearGradient
       inkscape:collect="always"
       xlink:href="#mythicGradient"
       id="linearGradient131"
       x1="7675.801"
       y1="8966.663"
       x2="7928.9724"
       y2="8966.663"
       gradientTransform="scale(1.2236011,0.8172598)"
       gradientUnits="userSpaceOnUse" />
    <linearGradient
       inkscape:collect="always"
       xlink:href="#mythicGradient"
       id="linearGradient132"
       x1="3830.7673"
       y1="6476.0603"
       x2="3893.3179"
       y2="6476.0603"
       gradientTransform="scale(0.86937017,1.150258)"
       gradientUnits="userSpaceOnUse" />
    <linearGradient
       inkscape:collect="always"
       xlink:href="#mythicGradient"
       id="linearGradient133"
       x1="5841.4469"
       y1="6202.943"
       x2="5932.9961"
       y2="6202.943"
       gradientTransform="scale(0.83653985,1.1954003)"
       gradientUnits="userSpaceOnUse" />
    <linearGradient
       inkscape:collect="always"
       xlink:href="#mythicGradient"
       id="linearGradient134"
       x1="10957.014"
       y1="6503.4878"
       x2="11134.413"
       y2="6503.4878"
       gradientTransform="scale(0.89029731,1.1232203)"
       gradientUnits="userSpaceOnUse" />
    <linearGradient
       inkscape:collect="always"
       xlink:href="#mythicGradient"
       id="linearGradient135"
       x1="2728.1678"
       y1="9166.1913"
       x2="3004.2286"
       y2="9166.1913"
       gradientTransform="scale(1.2599583,0.79367705)"
       gradientUnits="userSpaceOnUse" />
    <linearGradient
       inkscape:collect="always"
       xlink:href="#mythicGradient"
       id="linearGradient136"
       x1="5755.2684"
       y1="5115.0531"
       x2="5825.344"
       y2="5115.0531"
       gradientTransform="scale(0.69414429,1.4406227)"
       gradientUnits="userSpaceOnUse" />
    <linearGradient
       inkscape:collect="always"
       xlink:href="#mythicGradient"
       id="linearGradient137"
       x1="10093.416"
       y1="7811.7474"
       x2="10150.291"
       y2="7811.7474"
       gradientTransform="scale(1.0527777,0.94986811)"
       gradientUnits="userSpaceOnUse" />
    <linearGradient
       inkscape:collect="always"
       xlink:href="#mythicGradient"
       id="linearGradient138"
       x1="2966.3162"
       y1="6175.605"
       x2="3216.8342"
       y2="6175.605"
       gradientTransform="scale(0.86150978,1.1607529)"
       gradientUnits="userSpaceOnUse" />
    <linearGradient
       inkscape:collect="always"
       xlink:href="#mythicGradient"
       id="linearGradient139"
       x1="4336.734"
       y1="5354.8447"
       x2="4476.7781"
       y2="5354.8447"
       gradientTransform="scale(0.73707429,1.3567153)"
       gradientUnits="userSpaceOnUse" />
    <linearGradient
       inkscape:collect="always"
       xlink:href="#mythicGradient"
       id="linearGradient140"
       x1="3256.2174"
       y1="7303.4447"
       x2="3436.3225"
       y2="7303.4447"
       gradientTransform="scale(1.0051884,0.9948384)"
       gradientUnits="userSpaceOnUse" />
    <linearGradient
       inkscape:collect="always"
       xlink:href="#mythicGradient"
       id="linearGradient141"
       x1="6591.9434"
       y1="11150.438"
       x2="7081.9289"
       y2="11150.438"
       gradientTransform="scale(1.5649186,0.63901089)"
       gradientUnits="userSpaceOnUse" />
    <linearGradient
       inkscape:collect="always"
       xlink:href="#mythicGradient"
       id="linearGradient142"
       x1="9577.0003"
       y1="8323.4067"
       x2="9666.5518"
       y2="8323.4067"
       gradientTransform="scale(1.1316664,0.8836526)"
       gradientUnits="userSpaceOnUse" />
    <linearGradient
       inkscape:collect="always"
       xlink:href="#mythicGradient"
       id="linearGradient143"
       x1="2717.4913"
       y1="7893.4678"
       x2="2945.1474"
       y2="7893.4678"
       gradientTransform="scale(1.0947597,0.91344246)"
       gradientUnits="userSpaceOnUse" />
    <linearGradient
       inkscape:collect="always"
       xlink:href="#mythicGradient"
       id="linearGradient144"
       x1="3423.0017"
       y1="4915.4803"
       x2="3619.6039"
       y2="4915.4803"
       gradientTransform="scale(0.68940821,1.4505194)"
       gradientUnits="userSpaceOnUse" />
    <linearGradient
       inkscape:collect="always"
       xlink:href="#mythicGradient"
       id="linearGradient145"
       x1="3871.023"
       y1="10266.621"
       x2="4958.4256"
       y2="10266.621"
       gradientTransform="scale(1.5357698,0.65113927)"
       gradientUnits="userSpaceOnUse" />
    <linearGradient
       inkscape:collect="always"
       xlink:href="#mythicGradient"
       id="linearGradient146"
       x1="2222.1318"
       y1="8862.9625"
       x2="2449.6261"
       y2="8862.9625"
       gradientTransform="scale(1.2308001,0.81247962)"
       gradientUnits="userSpaceOnUse" />
    <linearGradient
       inkscape:collect="always"
       xlink:href="#mythicGradient"
       id="linearGradient147"
       x1="13946.888"
       y1="5661.9319"
       x2="14096.396"
       y2="5661.9319"
       gradientTransform="scale(0.7934652,1.2602947)"
       gradientUnits="userSpaceOnUse" />
    <linearGradient
       inkscape:collect="always"
       xlink:href="#mythicGradient"
       id="linearGradient148"
       x1="2447.6007"
       y1="7298.4679"
       x2="2568.4031"
       y2="7298.4679"
       gradientTransform="scale(1.0214791,0.97897259)"
       gradientUnits="userSpaceOnUse" />
    <linearGradient
       inkscape:collect="always"
       xlink:href="#mythicGradient"
       id="linearGradient149"
       x1="644.16952"
       y1="6603.9425"
       x2="13022.24"
       y2="6603.9425"
       gradientTransform="scale(0.98787472,1.0122741)"
       gradientUnits="userSpaceOnUse" />
  </defs>
  <g
     transform="matrix(0.1561802,0,0,-0.12952156,-92.339455,2563.4537)"
     fill="url(#mythicGradient)"
     stroke="#000000"
     stroke-width="30"
     id="g75"
     style="fill:url(#linearGradient149)">
    <!-- Adjust stroke-width for thickness -->
    <path
       d="m 6700,19187 c 0,-7 -12,-23 -26,-36"
       id="path2"
       style="fill:url(#linearGradient75)" />
    <path
       d="m 6700,19187 c 0,-7 -12,-23 -26,-36 -64,-56 -64,-138 1,-201 19,-19 35,-41 35,-50 0,-8 -25,-87 -56,-175 -31,-88 -60,-173 -64,-190 -5,-16 -31,-95 -60,-175 -28,-80 -75,-217 -105,-305 -30,-88 -82,-241 -116,-340 -35,-99 -83,-240 -108,-314 -49,-143 -69,-172 -96,-135 -8,12 -56,71 -107,132 -51,60 -125,150 -165,199 -39,48 -105,129 -146,178 -223,272 -225,275 -192,319 20,26 19,101 -1,134 -54,91 -170,91 -231,2 -40,-58 -21,-146 38,-178 17,-9 42,-25 55,-35 l 24,-18 v -527 c 0,-315 4,-533 10,-542 8,-13 172,-15 1359,-18 869,-1 1358,1 1375,8 l 26,10 v 540 541 l 32,17 c 70,38 91,65 95,123 6,84 -34,135 -114,146 -76,10 -153,-57 -153,-133 0,-14 9,-44 20,-66 11,-23 20,-47 20,-53 0,-6 -37,-56 -83,-111 -73,-89 -231,-283 -312,-384 -115,-144 -227,-279 -248,-299 l -25,-23 -15,28 c -8,16 -38,99 -66,184 -28,85 -56,169 -61,185 -29,79 -134,388 -155,455 -13,41 -39,122 -59,180 -20,58 -78,226 -127,374 l -91,268 36,37 c 70,73 72,147 5,219 -37,39 -43,42 -94,42 -39,0 -55,-4 -55,-13 z"
       id="path3"
       style="fill:url(#linearGradient76)" />
    <path
       d="m 12017,17883 c -8,-10 -47,-76 -85,-148 -140,-264 -187,-352 -224,-420 -21,-38 -50,-95 -65,-125 -20,-43 -80,-109 -267,-297 -132,-134 -247,-243 -256,-243 -8,0 -78,63 -155,140 -77,78 -165,158 -195,178 -53,35 -59,37 -140,37 -72,0 -91,-4 -125,-24 -107,-64 -140,-121 -140,-241 0,-108 10,-125 167,-286 65,-67 118,-125 118,-130 0,-5 -4,-14 -8,-19 -10,-14 -252,-240 -427,-399 -171,-156 -365,-341 -369,-353 -8,-19 -8,-18 132,-158 63,-63 122,-115 131,-115 8,0 76,61 151,135 143,142 161,152 208,119 16,-11 22,-25 22,-50 0,-31 -13,-48 -135,-170 -74,-74 -135,-141 -135,-149 0,-21 251,-266 269,-263 13,3 520,536 704,741 29,31 60,57 71,57 11,0 71,-51 140,-118 142,-138 183,-162 278,-162 155,0 272,114 272,265 0,100 -25,139 -199,315 -106,107 -155,163 -155,178 0,15 65,88 218,240 119,120 233,230 252,244 19,14 85,51 145,83 61,32 142,75 180,95 39,21 115,61 170,90 55,29 134,70 175,92 41,22 83,49 93,60 28,33 21,84 -27,183 -111,225 -387,499 -610,604 -77,36 -153,42 -179,14 z"
       id="path4"
       style="fill:url(#linearGradient77)" />
    <path
       d="m 1320,17856 c -265,-110 -644,-526 -668,-731 -5,-52 12,-70 116,-125 37,-20 119,-63 182,-97 160,-84 333,-175 410,-215 53,-27 109,-76 303,-268 130,-129 240,-243 243,-253 5,-14 -32,-57 -154,-180 -87,-89 -169,-181 -181,-204 -16,-32 -21,-60 -21,-117 0,-107 35,-169 130,-232 40,-27 51,-29 134,-29 115,0 135,11 290,163 63,62 122,112 133,112 10,0 32,-15 49,-33 65,-68 191,-205 239,-258 123,-138 440,-471 458,-480 22,-12 15,-18 168,134 60,59 109,115 109,123 0,8 -46,61 -102,117 -126,124 -148,153 -148,188 0,31 32,59 65,59 27,-1 40,-11 171,-140 62,-60 117,-110 122,-110 23,0 272,241 272,263 0,12 -29,41 -261,257 -217,202 -407,379 -466,434 -33,31 -53,57 -53,71 0,15 31,52 93,112 157,151 187,202 187,307 0,154 -126,273 -280,264 -96,-5 -136,-31 -302,-196 -82,-80 -155,-150 -163,-154 -8,-5 -23,-5 -32,1 -10,5 -121,114 -248,243 -196,199 -235,243 -265,303 -19,38 -48,92 -63,119 -16,28 -59,109 -97,180 -37,72 -91,173 -119,225 -28,52 -51,97 -51,102 0,4 -12,21 -26,38 -22,27 -32,31 -72,31 -26,-1 -72,-11 -102,-24 z"
       id="path5"
       style="fill:url(#linearGradient78)" />
    <path
       d="m 4854,16627 c -2,-7 -3,-114 -2,-237 l 3,-225 1900,-3 c 1777,-2 1901,-1 1913,15 15,21 17,414 2,444 -11,19 -42,19 -1911,19 -1528,0 -1901,-2 -1905,-13 z"
       id="path6"
       style="fill:url(#linearGradient79)" />
    <path
       d="m 3398,15093 c -490,-490 -828,-835 -828,-846 0,-10 26,-60 58,-110 112,-178 234,-443 305,-657 22,-68 31,-101 66,-235 45,-173 75,-446 75,-675 0,-204 -15,-353 -61,-585 -34,-172 -35,-186 -29,-330 11,-282 81,-587 214,-930 125,-322 350,-739 575,-1065 94,-136 100,-145 174,-245 79,-107 54,-75 211,-270 71,-88 136,-172 146,-187 16,-24 25,-28 66,-28 27,0 61,5 77,11 15,6 71,12 123,14 125,4 299,15 328,21 12,2 22,10 22,17 0,10 -51,71 -175,207 -110,122 -365,444 -471,595 -138,199 -273,415 -348,558 -94,178 -112,217 -169,352 -192,455 -271,906 -199,1140 46,149 61,237 82,490 21,246 -17,577 -103,885 -66,235 -191,525 -329,763 -23,39 -37,75 -34,85 3,9 327,338 719,730 l 712,712 2142,-2 2141,-3 736,-736 c 405,-405 736,-740 736,-746 0,-5 -14,-31 -31,-58 -139,-219 -274,-575 -325,-859 -51,-285 -56,-352 -57,-671 0,-318 8,-413 50,-585 23,-96 19,-360 -7,-499 -20,-107 -44,-211 -60,-266 -25,-82 -75,-228 -100,-290 -15,-38 -38,-95 -50,-125 -70,-174 -283,-551 -445,-790 -163,-239 -445,-593 -664,-832 -24,-26 -41,-54 -38,-61 5,-14 76,-21 327,-33 52,-3 111,-9 130,-14 19,-6 58,-10 87,-10 48,0 54,3 80,38 15,20 73,93 128,161 123,153 204,258 258,335 23,32 57,80 75,105 107,150 270,407 367,581 30,55 162,321 210,425 67,145 170,441 203,585 69,297 100,594 72,690 -15,50 -36,156 -61,305 -19,112 -22,169 -22,420 0,297 1,314 49,575 17,91 26,127 74,290 60,204 172,455 294,660 31,52 56,99 56,105 0,5 -384,394 -853,862 l -852,853 H 6740 4225 Z"
       id="path7"
       style="fill:url(#linearGradient80)" />
    <path
       d="m 4660,15383 c -26,-9 -1340,-1327 -1340,-1344 0,-9 11,-36 24,-60 14,-24 51,-96 83,-159 35,-69 66,-116 76,-118 9,-2 58,25 109,59 624,422 768,509 923,562 89,30 92,31 385,38 162,4 320,12 350,18 30,5 129,10 220,10 197,1 287,-11 565,-74 237,-54 486,-100 622,-115 100,-11 251,-45 328,-74 32,-12 94,-15 315,-15 266,-1 356,-7 505,-36 39,-8 104,-19 145,-24 107,-15 624,-31 757,-24 130,7 143,2 143,-58 0,-43 -37,-93 -93,-128 -47,-28 -156,-51 -250,-51 -84,0 -115,-9 -103,-29 4,-6 35,-30 69,-53 34,-23 103,-81 152,-128 50,-48 117,-107 150,-132 33,-25 87,-72 120,-104 81,-79 180,-164 236,-202 68,-46 119,-106 119,-142 0,-36 -40,-76 -91,-91 -20,-6 -74,-10 -120,-7 -103,4 -150,25 -234,105 -129,123 -250,212 -370,273 -66,34 -146,82 -178,107 -52,40 -87,50 -87,25 0,-9 51,-68 205,-236 133,-144 195,-229 312,-425 80,-134 116,-184 195,-268 113,-119 123,-141 82,-184 -35,-36 -79,-49 -169,-49 -56,0 -80,5 -124,28 -71,35 -184,151 -263,267 -76,113 -82,119 -203,223 -55,47 -128,112 -162,143 -162,150 -267,220 -420,281 -61,25 -165,78 -232,117 -189,113 -185,92 21,-110 97,-96 183,-187 191,-204 8,-16 23,-79 32,-140 10,-60 29,-150 42,-200 30,-107 43,-371 24,-465 -15,-75 -40,-221 -51,-301 -11,-80 -26,-117 -59,-145 -25,-21 -25,-24 -13,-68 20,-78 15,-183 -12,-254 -43,-108 -85,-161 -174,-217 -36,-21 -43,-31 -38,-48 16,-57 17,-93 4,-111 -19,-24 -92,-32 -157,-16 -71,17 -96,2 -144,-85 -101,-182 -126,-235 -143,-302 -20,-78 -16,-120 21,-213 18,-45 18,-45 -10,-115 -32,-78 -35,-139 -11,-196 8,-20 18,-58 21,-85 6,-48 5,-51 -65,-156 -55,-84 -76,-108 -93,-108 -13,0 -117,62 -232,139 -290,191 -646,425 -730,479 -95,62 -145,101 -145,115 0,21 139,226 161,237 11,7 55,14 97,17 93,7 120,19 194,89 31,30 65,54 75,55 98,5 140,12 181,33 55,28 143,113 209,200 26,33 62,78 80,99 44,50 45,94 2,149 -42,53 -59,104 -47,139 9,26 34,41 90,53 29,6 33,16 44,88 6,47 6,48 -46,98 -50,49 -161,136 -246,193 -53,36 -217,206 -324,337 -104,128 -350,382 -405,419 -22,15 -76,42 -120,61 -165,69 -242,104 -300,140 -33,20 -67,39 -75,43 -8,4 -76,46 -150,93 -167,107 -217,134 -308,163 -111,36 -86,54 -334,-239 -68,-80 -150,-179 -183,-220 -33,-40 -99,-119 -146,-174 -105,-124 -372,-456 -392,-488 -8,-13 -20,-48 -26,-78 -13,-62 -35,-150 -57,-226 -28,-101 -14,-316 37,-545 63,-284 214,-649 395,-956 231,-390 457,-693 853,-1140 153,-173 134,-164 286,-143 39,5 162,12 275,15 113,4 244,11 292,16 122,13 1822,13 1868,-1 19,-5 118,-10 220,-10 102,-1 232,-5 290,-10 280,-25 289,-25 306,-1 9,12 71,84 138,160 66,76 150,171 186,213 71,82 250,308 290,366 14,20 45,64 70,97 165,223 365,565 485,830 199,440 283,866 227,1153 -33,170 -43,255 -52,439 -15,330 12,665 75,923 81,331 140,497 251,707 30,56 54,106 54,111 0,9 -1295,1309 -1353,1358 l -29,24 -2076,-1 c -1142,0 -2084,-3 -2092,-6 z"
       id="path8"
       style="fill:url(#linearGradient81)" />
    <path
       d="m 6401,13171 c -12,-16 -21,-35 -21,-43 0,-7 -14,-33 -30,-58 -24,-36 -30,-56 -30,-98 0,-69 18,-102 135,-247 54,-66 122,-151 153,-190 31,-38 110,-126 177,-195 118,-123 170,-191 216,-280 41,-82 42,-82 144,-75 100,8 175,-6 250,-45 48,-24 53,-16 29,48 -12,33 -19,93 -23,202 -6,153 -7,156 -43,230 -20,41 -55,119 -78,174 -60,140 -76,163 -135,197 -29,16 -86,59 -126,95 -152,135 -323,253 -427,293 -32,13 -76,21 -112,21 -53,0 -60,-3 -79,-29 z"
       id="path9"
       style="fill:url(#linearGradient82)" />
    <path
       d="m 7130,8750 c 0,-11 12,-25 28,-32 50,-24 55,-61 44,-370 -9,-299 -13,-315 -68,-340 -13,-6 -23,-16 -21,-22 5,-14 279,-15 284,-1 1,6 -10,19 -26,29 -52,35 -53,42 -52,280 1,194 9,302 27,384 3,15 18,29 39,38 19,8 35,19 35,24 0,14 -30,18 -167,23 -115,5 -123,4 -123,-13 z"
       id="path10"
       style="fill:url(#linearGradient83)" />
    <path
       d="m 6187,8753 c -24,-6 -16,-26 13,-33 13,-3 31,-17 41,-30 16,-22 19,-58 25,-306 4,-154 4,-296 0,-315 -4,-24 -17,-41 -41,-58 -22,-15 -32,-28 -27,-33 15,-15 419,-3 467,13 60,21 138,102 166,174 43,112 37,285 -14,395 -20,42 -84,124 -117,148 -61,46 -100,52 -304,51 -105,-1 -199,-3 -209,-6 z m 404,-72 c 56,-43 83,-84 113,-174 32,-92 37,-219 12,-292 -26,-77 -51,-127 -79,-157 -29,-31 -118,-61 -156,-51 -34,9 -67,42 -76,78 -8,31 -23,613 -16,629 2,4 38,6 80,5 70,-4 82,-7 122,-38 z"
       id="path11"
       style="fill:url(#linearGradient84)" />
    <path
       d="m 7932,8752 c -41,-7 -139,-70 -170,-109 -56,-72 -89,-164 -98,-271 -15,-185 59,-343 191,-409 63,-32 193,-36 252,-8 42,20 103,83 103,106 0,8 7,24 15,35 20,26 20,84 0,84 -9,0 -15,-9 -15,-24 0,-13 -7,-29 -15,-36 -8,-7 -15,-20 -15,-29 -1,-9 -8,-25 -18,-37 -34,-41 -67,-54 -138,-56 -82,-3 -128,20 -166,80 -48,77 -58,120 -58,252 1,136 16,201 66,287 71,121 199,138 286,38 22,-26 58,-120 58,-151 0,-19 5,-24 25,-24 24,0 25,2 25,74 0,40 3,95 7,121 l 6,48 -45,-6 c -33,-5 -52,-2 -74,12 -29,18 -170,33 -222,23 z"
       id="path12"
       style="fill:url(#linearGradient85)" />
    <path
       d="m 5727,8743 c -13,-12 -7,-20 29,-39 44,-23 54,-47 54,-132 0,-37 5,-85 10,-107 5,-22 10,-110 11,-195 2,-124 -1,-163 -14,-193 -17,-39 -52,-76 -73,-77 -6,0 -17,-7 -24,-15 -9,-11 -32,-15 -81,-15 -61,0 -71,3 -94,28 -57,60 -66,114 -81,500 -6,137 -4,155 11,173 10,10 26,19 35,19 22,0 30,9 23,26 -4,11 -29,14 -117,13 -167,-2 -203,-15 -140,-50 42,-22 56,-60 60,-158 2,-47 9,-165 16,-261 10,-155 14,-180 37,-225 19,-36 38,-57 71,-75 40,-22 56,-25 152,-25 87,0 110,4 125,18 11,9 24,17 29,17 6,0 24,15 41,33 64,68 63,64 63,279 0,108 -5,221 -11,249 -17,80 2,154 47,181 19,11 31,24 28,29 -6,10 -197,12 -207,2 z"
       id="path13"
       style="fill:url(#linearGradient86)" />
    <path
       d="m 8816,8711 c -3,-4 -23,-11 -44,-15 -22,-3 -45,-13 -52,-21 -7,-8 -18,-15 -24,-15 -17,0 -102,-84 -128,-127 -50,-80 -63,-130 -62,-253 0,-104 2,-121 27,-173 14,-32 38,-73 53,-90 40,-49 116,-106 149,-113 17,-3 45,-11 62,-17 26,-9 47,-7 105,8 130,32 220,118 275,258 77,200 -6,439 -183,526 -27,13 -57,28 -66,32 -23,12 -105,11 -112,0 z m 111,-38 c 3,-7 11,-13 19,-13 7,0 25,-12 39,-27 87,-93 123,-316 75,-458 -33,-95 -68,-159 -111,-201 -39,-38 -41,-38 -116,-38 h -76 l -42,47 c -64,73 -89,169 -82,312 7,117 22,186 56,253 27,52 79,112 97,112 8,0 17,7 20,15 8,19 114,18 121,-2 z"
       id="path14"
       style="fill:url(#linearGradient87)" />
    <path
       d="m 4689,8685 c -3,-2 -51,-9 -108,-14 -118,-11 -141,-22 -88,-44 55,-24 52,-8 84,-347 28,-295 28,-311 -2,-342 -14,-16 -32,-28 -40,-28 -8,0 -15,-7 -15,-15 0,-20 68,-20 215,0 61,8 155,15 211,15 137,0 137,1 135,126 -1,54 -4,101 -7,103 -13,13 -40,-20 -45,-55 -11,-80 -48,-122 -127,-143 -56,-16 -125,2 -148,37 -35,54 -55,202 -70,523 l -5,106 40,35 c 23,19 38,38 34,41 -7,8 -57,9 -64,2 z"
       id="path15"
       style="fill:url(#linearGradient88)" />
    <path
       d="m 6824,7728 c -5,-7 -7,-31 -5,-53 2,-22 4,-71 5,-110 1,-66 2,-70 25,-73 23,-4 24,-2 18,45 -3,26 -2,56 2,66 5,15 12,5 31,-41 14,-33 30,-62 35,-63 17,-5 31,50 17,69 -7,9 -15,24 -18,32 -23,61 -23,61 -44,50 -18,-10 -20,-8 -20,24 0,19 -3,41 -6,50 -7,19 -30,21 -40,4 z"
       id="path16"
       style="fill:url(#linearGradient89)" />
    <path
       d="m 5809,7725 c -3,-2 -4,-58 -3,-122 2,-112 3,-118 24,-121 30,-5 52,15 40,38 -5,10 -12,51 -15,92 -8,98 -13,118 -29,118 -7,0 -15,-2 -17,-5 z"
       id="path17"
       style="fill:url(#linearGradient90)" />
    <path
       d="m 5900,7711 c 0,-11 5,-23 11,-27 19,-11 49,-91 42,-111 -3,-10 -14,-30 -25,-44 -16,-25 -16,-28 -2,-40 14,-12 21,-9 49,24 l 33,38 10,-30 c 11,-31 47,-49 78,-37 22,8 12,29 -16,36 -20,5 -24,12 -26,43 -1,40 12,59 22,33 4,-10 18,-16 40,-16 21,0 42,-9 59,-24 29,-27 26,-53 -4,-37 -10,6 -23,6 -31,1 -25,-15 3,-32 46,-28 34,3 39,7 48,37 8,29 7,36 -15,53 -16,13 -20,21 -11,25 18,7 15,30 -5,37 -10,4 -28,-1 -45,-14 -32,-24 -48,-26 -48,-5 0,26 -74,20 -93,-7 -15,-23 -15,-23 -22,15 -5,26 -19,47 -43,67 -43,35 -52,37 -52,11 z"
       id="path18"
       style="fill:url(#linearGradient91)" />
    <path
       d="m 7992,7630 c -2,-95 -11,-136 -35,-152 -14,-8 58,-22 72,-13 14,8 12,222 -1,248 -5,9 -14,17 -21,17 -10,0 -14,-27 -15,-100 z"
       id="path19"
       style="fill:url(#linearGradient92)" />
    <path
       d="m 5505,7605 c 5,-94 3,-115 -9,-115 -23,0 -39,28 -33,57 13,66 13,68 -8,65 -31,-5 -38,-17 -39,-66 -1,-62 25,-86 95,-86 42,0 52,3 56,20 6,24 16,25 33,5 17,-21 54,-19 75,5 16,17 16,20 2,20 -8,0 -18,-6 -20,-12 -4,-10 -8,-9 -16,2 -19,26 -24,60 -10,76 11,14 13,14 21,0 14,-25 38,-19 38,8 0,15 -10,30 -27,41 l -26,18 -44,-46 -43,-46 v 62 c 0,81 -8,107 -31,107 -18,0 -19,-7 -14,-115 z"
       id="path20"
       style="fill:url(#linearGradient93)" />
    <path
       d="m 8285,7690 c -3,-5 -1,-18 4,-29 13,-23 5,-135 -12,-169 -9,-19 -8,-25 3,-32 40,-26 47,-14 54,92 3,56 11,107 17,114 6,7 8,18 4,24 -8,13 -62,13 -70,0 z"
       id="path21"
       style="fill:url(#linearGradient94)" />
    <path
       d="m 5135,7680 c 3,-5 13,-10 21,-10 8,0 14,5 14,10 0,6 -9,10 -21,10 -11,0 -17,-4 -14,-10 z"
       id="path22"
       style="fill:url(#linearGradient95)" />
    <path
       d="m 7610,7655 c -6,-15 -10,-55 -10,-89 0,-73 15,-95 50,-76 12,6 34,8 51,5 32,-7 37,3 17,35 -10,15 -9,26 6,57 17,36 18,37 33,18 10,-14 13,-33 8,-67 -5,-43 -4,-48 14,-48 47,0 57,91 15,127 -46,39 -117,7 -133,-60 -9,-37 -10,-34 -6,30 5,65 3,73 -15,83 -17,9 -22,7 -30,-15 z"
       id="path23"
       style="fill:url(#linearGradient96)" />
    <path
       d="m 4760,7655 c 0,-8 7,-15 15,-15 8,0 15,7 15,15 0,8 -7,15 -15,15 -8,0 -15,-7 -15,-15 z"
       id="path24"
       style="fill:url(#linearGradient97)" />
    <path
       d="m 4947,7663 c -4,-3 -7,-17 -7,-30 0,-28 23,-27 28,1 4,20 -11,40 -21,29 z"
       id="path25"
       style="fill:url(#linearGradient98)" />
    <path
       d="m 8742,7573 c -1,-54 -3,-109 -5,-123 -2,-22 2,-25 28,-26 17,0 36,-4 43,-8 7,-4 21,-5 31,-1 10,3 23,-1 30,-9 6,-8 21,-12 31,-9 30,8 56,-5 42,-19 -16,-16 -15,-38 1,-38 20,0 47,33 47,58 0,24 10,28 27,11 14,-14 65,-8 71,9 2,7 -5,12 -15,12 -41,0 -57,48 -27,81 20,22 9,42 -20,35 -11,-2 -30,2 -40,10 -23,16 -72,19 -81,4 -9,-15 -36,-12 -56,6 -27,24 -39,8 -39,-51 0,-54 -14,-81 -24,-48 -3,10 -4,59 -3,108 2,83 0,90 -18,93 -19,3 -20,-4 -23,-95 z m 246,-107 c 2,-9 1,-24 -3,-33 -10,-27 -39,8 -30,36 8,25 28,23 33,-3 z"
       id="path26"
       style="fill:url(#linearGradient99)" />
    <path
       d="m 8840,7655 c 0,-9 5,-15 11,-13 6,2 11,8 11,13 0,5 -5,11 -11,13 -6,2 -11,-4 -11,-13 z"
       id="path27"
       style="fill:url(#linearGradient100)" />
    <path
       d="m 6531,7638 c -18,-19 -21,-19 -27,-5 -3,10 -12,17 -19,17 -9,0 -12,-21 -11,-79 1,-65 4,-81 17,-84 28,-7 36,6 35,55 0,25 2,49 6,53 13,13 28,-6 28,-36 0,-16 9,-38 21,-50 20,-20 22,-21 32,-4 7,13 5,26 -7,45 -9,16 -16,39 -16,53 0,22 -22,57 -35,57 -2,0 -13,-10 -24,-22 z"
       id="path28"
       style="fill:url(#linearGradient101)" />
    <path
       d="m 6389,7639 c -11,-7 -12,-12 -1,-29 15,-25 16,-72 0,-88 -14,-14 -2,-29 27,-34 18,-3 20,3 23,73 2,68 1,77 -16,82 -11,2 -26,1 -33,-4 z"
       id="path29"
       style="fill:url(#linearGradient102)" />
    <path
       d="m 6635,7610 c 8,-53 43,-110 67,-110 14,0 15,5 7,32 -5,17 -6,49 -3,70 5,30 3,38 -9,38 -9,0 -19,-5 -22,-11 -5,-7 -14,-4 -27,8 -20,18 -20,18 -13,-27 z"
       id="path30"
       style="fill:url(#linearGradient103)" />
    <path
       d="m 6985,7639 c -4,-5 0,-18 9,-28 10,-11 16,-36 16,-69 v -52 l 61,2 62,3 1,74 c 1,76 -9,96 -38,71 -11,-8 -20,-8 -35,-1 -25,14 -68,14 -76,0 z m 113,-53 c 5,-38 -6,-78 -18,-71 -15,10 -13,108 3,103 6,-3 13,-17 15,-32 z"
       id="path31"
       style="fill:url(#linearGradient104)" />
    <path
       d="m 7169,7649 c 0,-2 -2,-39 -3,-81 l -2,-78 h 28 28 v 75 c 0,41 -4,75 -9,75 -5,0 -16,3 -25,6 -9,3 -16,5 -17,3 z"
       id="path32"
       style="fill:url(#linearGradient105)" />
    <path
       d="m 7343,7628 c -41,-18 -43,-21 -43,-60 0,-23 -3,-38 -7,-34 -5,5 -8,29 -8,54 0,37 -4,47 -18,50 -16,3 -18,-4 -15,-75 2,-62 6,-78 19,-81 9,-2 24,4 32,13 15,14 19,14 41,0 22,-15 27,-15 53,-1 26,14 26,15 6,16 -26,0 -58,43 -49,65 3,10 16,14 38,13 29,-3 33,0 33,21 0,34 -31,42 -82,19 z"
       id="path33"
       style="fill:url(#linearGradient106)" />
    <path
       d="m 7462,7637 c -15,-19 -12,-145 4,-158 11,-9 18,-9 28,0 8,7 32,11 53,9 l 38,-3 v 75 75 l -42,1 c -22,1 -48,4 -56,7 -9,3 -20,0 -25,-6 z m 76,-69 c -2,-31 -8,-44 -20,-46 -15,-3 -18,4 -18,42 0,40 3,46 21,46 18,0 20,-5 17,-42 z"
       id="path34"
       style="fill:url(#linearGradient107)" />
    <path
       d="m 6261,7621 c -15,-27 -14,-93 2,-115 9,-12 23,-17 42,-14 34,4 44,23 16,31 -16,4 -20,15 -23,58 -3,56 -20,73 -37,40 z"
       id="path35"
       style="fill:url(#linearGradient108)" />
    <path
       d="m 6310,7615 c 0,-28 25,-44 42,-27 15,15 -1,52 -23,52 -14,0 -19,-7 -19,-25 z"
       id="path36"
       style="fill:url(#linearGradient109)" />
    <path
       d="m 6740,7626 c 0,-8 5,-18 10,-21 14,-9 12,-42 -5,-75 -17,-33 -1,-55 20,-27 7,10 17,17 24,17 19,0 14,85 -7,103 -23,21 -42,22 -42,3 z"
       id="path37"
       style="fill:url(#linearGradient110)" />
    <path
       d="m 4226,7623 c -12,-12 -6,-33 9,-33 8,0 15,6 15,14 0,17 -14,28 -24,19 z"
       id="path38"
       style="fill:url(#linearGradient111)" />
    <path
       d="m 7929,7614 c -33,-17 -44,-55 -29,-100 18,-52 40,-44 40,15 0,31 5,53 15,61 15,13 21,41 8,39 -5,-1 -20,-7 -34,-15 z"
       id="path39"
       style="fill:url(#linearGradient112)" />
    <path
       d="m 9043,7611 c -15,-23 -8,-31 27,-31 36,0 43,10 23,32 -21,23 -35,23 -50,-1 z"
       id="path40"
       style="fill:url(#linearGradient113)" />
    <path
       d="m 8538,7608 c -9,-22 0,-160 11,-171 19,-19 26,3 26,89 0,74 -3,89 -16,92 -9,2 -19,-3 -21,-10 z"
       id="path41"
       style="fill:url(#linearGradient114)" />
    <path
       d="m 3987,7603 c -11,-10 -8,-41 4,-49 14,-8 53,31 45,45 -8,12 -39,15 -49,4 z"
       id="path42"
       style="fill:url(#linearGradient115)" />
    <path
       d="m 4816,7585 c -6,-22 -9,-23 -26,-13 -28,18 -33,6 -33,-69 1,-59 4,-69 23,-82 21,-14 24,-14 37,6 12,18 18,20 34,10 31,-19 43,2 29,52 -6,23 -8,51 -5,61 8,26 -11,60 -34,60 -12,0 -21,-10 -25,-25 z"
       id="path43"
       style="fill:url(#linearGradient116)" />
    <path
       d="m 5065,7601 c -29,-6 -30,-8 -33,-69 -2,-34 -7,-62 -11,-62 -9,0 -21,49 -21,85 0,21 -5,23 -45,23 -34,0 -45,-4 -45,-15 0,-11 7,-14 25,-9 24,6 26,4 25,-26 0,-95 2,-98 79,-98 h 54 l -7,53 c -4,37 -2,59 7,71 13,17 14,17 31,0 15,-14 17,-28 13,-65 -5,-37 -2,-49 9,-53 23,-9 31,0 39,41 l 7,38 13,-26 c 12,-22 21,-26 65,-27 46,-1 52,2 60,24 6,14 10,38 10,53 0,34 -42,76 -66,67 -15,-6 -15,-9 5,-27 17,-16 21,-30 19,-57 -3,-32 -6,-37 -28,-37 -23,0 -25,4 -30,60 l -5,60 -21,-33 -22,-34 -7,31 c -4,17 -10,31 -13,32 -54,5 -82,6 -107,0 z"
       id="path44"
       style="fill:url(#linearGradient117)" />
    <path
       d="m 8074,7596 c -14,-11 -19,-26 -19,-60 0,-53 23,-77 69,-73 37,3 48,27 13,27 -34,0 -50,23 -42,60 6,29 8,30 24,16 24,-22 61,-21 61,2 0,10 -5,23 -12,30 -16,16 -70,15 -94,-2 z"
       id="path45"
       style="fill:url(#linearGradient118)" />
    <path
       d="m 8384,7597 c -3,-8 -4,-47 -2,-88 3,-66 5,-74 23,-74 16,0 19,6 17,30 -5,40 7,115 18,115 17,0 29,-59 18,-90 -13,-40 -4,-60 27,-60 25,0 25,1 25,75 0,83 -3,87 -78,99 -31,5 -44,3 -48,-7 z"
       id="path46"
       style="fill:url(#linearGradient119)" />
    <path
       d="m 9440,7595 c 0,-8 7,-15 15,-15 8,0 15,7 15,15 0,8 -7,15 -15,15 -8,0 -15,-7 -15,-15 z"
       id="path47"
       style="fill:url(#linearGradient120)" />
    <path
       d="m 3844,7576 c -3,-8 -1,-23 5,-35 6,-11 11,-45 11,-77 0,-63 29,-124 59,-124 25,0 33,11 19,27 -14,17 -29,90 -33,154 -1,26 -6,52 -9,58 -10,16 -46,14 -52,-3 z"
       id="path48"
       style="fill:url(#linearGradient121)" />
    <path
       d="m 4615,7570 c -3,-5 -19,-10 -35,-10 -35,0 -36,-4 -30,-87 5,-65 6,-68 30,-68 24,0 25,3 26,55 0,30 1,61 2,68 3,20 22,14 34,-13 6,-13 19,-27 28,-30 17,-5 34,-44 25,-54 -3,-2 -12,4 -19,15 -10,13 -18,16 -25,8 -8,-7 -7,-16 3,-29 12,-16 19,-18 41,-10 38,14 48,45 26,87 -14,29 -15,36 -3,47 23,22 -2,38 -37,25 -17,-7 -35,-8 -44,-3 -9,6 -18,5 -22,-1 z"
       id="path49"
       style="fill:url(#linearGradient122)" />
    <path
       d="m 8635,7571 c -29,-6 -30,-9 -33,-65 -3,-64 4,-76 50,-76 37,0 43,15 12,35 -17,11 -24,24 -22,38 3,19 8,22 41,19 31,-3 37,0 37,15 0,38 -23,48 -85,34 z"
       id="path50"
       style="fill:url(#linearGradient123)" />
    <path
       d="m 3560,7534 c 0,-9 5,-14 12,-12 18,6 21,28 4,28 -9,0 -16,-7 -16,-16 z"
       id="path51"
       style="fill:url(#linearGradient124)" />
    <path
       d="m 4265,7536 c -54,-20 -55,-22 -40,-73 16,-52 15,-56 -9,-47 -9,3 -17,18 -17,33 -1,14 -2,31 -4,36 -1,6 -3,15 -3,22 -1,8 -22,12 -62,11 l -60,-1 v -66 c 0,-74 9,-95 36,-89 16,3 19,13 19,68 0,51 3,65 15,65 11,0 16,-15 18,-62 l 3,-63 h 64 63 l -5,60 c -4,42 -2,60 6,60 6,0 14,-8 17,-17 20,-61 48,-88 65,-62 13,20 11,26 -10,46 -11,10 -21,34 -23,53 -3,40 -22,46 -73,26 z"
       id="path52"
       style="fill:url(#linearGradient125)" />
    <path
       d="m 4370,7536 c 0,-7 7,-19 15,-26 8,-7 15,-21 15,-32 0,-11 8,-33 17,-49 14,-24 24,-29 55,-29 42,0 55,26 16,32 -24,3 -35,35 -24,65 5,12 9,13 22,3 19,-16 37,-1 32,26 -4,25 -52,30 -83,10 -20,-13 -24,-13 -29,-1 -7,19 -36,20 -36,1 z"
       id="path53"
       style="fill:url(#linearGradient126)" />
    <path
       d="m 9070,7536 c 0,-25 12,-46 26,-46 9,0 14,11 14,30 0,23 -4,30 -20,30 -11,0 -20,-6 -20,-14 z"
       id="path54"
       style="fill:url(#linearGradient127)" />
    <path
       d="m 9138,7490 c -1,-33 -2,-68 -2,-77 -1,-12 6,-18 19,-18 16,0 21,11 30,65 7,47 14,65 25,65 12,0 15,-14 15,-70 0,-58 3,-70 17,-73 12,-2 19,5 24,23 l 6,26 19,-31 c 15,-24 25,-31 46,-28 36,4 43,28 7,28 -27,0 -27,0 -21,60 4,52 3,60 -12,60 -9,0 -22,-5 -28,-11 -8,-8 -13,-5 -18,10 -3,12 -9,21 -13,21 -4,1 -31,3 -59,6 l -53,4 z"
       id="path55"
       style="fill:url(#linearGradient128)" />
    <path
       d="m 10053,7532 c -38,-20 -73,-82 -73,-129 0,-36 33,-98 58,-109 33,-14 93,-13 99,2 7,19 47,18 64,-2 10,-12 25,-15 57,-11 23,2 46,7 49,10 3,3 8,26 10,50 4,33 1,48 -13,62 -19,18 -19,17 -22,-33 -2,-39 -8,-54 -23,-62 -32,-18 -42,-2 -37,57 3,29 0,57 -5,60 -12,8 -43,-31 -63,-79 -13,-31 -21,-38 -44,-38 -45,0 -73,43 -68,105 5,65 31,105 68,105 21,0 30,-7 40,-30 14,-35 25,-38 40,-11 16,31 13,37 -33,55 -53,20 -64,20 -104,-2 z"
       id="path56"
       style="fill:url(#linearGradient129)" />
    <path
       d="m 9342,7513 c 4,-22 43,-25 43,-3 0,8 -11,16 -23,18 -19,3 -23,0 -20,-15 z"
       id="path57"
       style="fill:url(#linearGradient130)" />
    <path
       d="m 9409,7516 c -4,-30 -1,-138 5,-143 4,-4 25,-8 47,-9 33,-2 42,2 48,19 7,20 8,20 13,1 6,-22 75,-51 89,-37 13,13 0,43 -17,43 -17,0 -18,32 -2,48 9,9 17,4 35,-20 13,-18 23,-40 23,-49 0,-30 20,-32 31,-2 9,22 8,34 -5,56 -9,17 -13,39 -9,57 7,36 -14,41 -41,11 -17,-19 -18,-19 -53,5 -20,13 -42,24 -49,24 -20,0 -27,-19 -10,-26 17,-6 21,-41 8,-59 -9,-14 -72,-13 -72,1 0,5 5,15 11,21 6,6 9,21 7,34 -2,18 -10,25 -30,27 -16,2 -28,1 -29,-2 z"
       id="path58"
       style="fill:url(#linearGradient131)" />
    <path
       d="m 3352,7493 c -8,-14 -9,-24 -2,-28 12,-7 24,18 18,37 -3,8 -9,5 -16,-9 z"
       id="path59"
       style="fill:url(#linearGradient132)" />
    <path
       d="m 4908,7486 c -14,-32 -4,-56 23,-56 17,0 20,4 15,23 -3,12 -6,30 -6,40 0,25 -19,21 -32,-7 z"
       id="path60"
       style="fill:url(#linearGradient133)" />
    <path
       d="m 9803,7468 c -30,-18 -33,-24 -33,-68 0,-40 4,-50 25,-64 25,-16 65,-22 65,-9 0,4 -11,19 -25,33 -25,26 -25,27 -8,60 16,33 17,33 26,12 12,-26 35,-29 44,-6 6,16 -33,65 -51,63 -6,0 -26,-10 -43,-21 z"
       id="path61"
       style="fill:url(#linearGradient134)" />
    <path
       d="m 3670,7471 c 0,-6 6,-11 14,-11 8,0 17,-7 20,-16 9,-24 7,-102 -3,-109 -17,-10 -41,38 -41,82 0,35 -3,43 -19,43 -20,0 -29,-23 -32,-75 -2,-19 -4,-12 -8,20 l -6,50 -61,3 c -73,3 -94,-12 -75,-54 6,-14 11,-45 11,-69 0,-39 3,-45 21,-45 19,0 20,4 14,65 -6,56 -5,66 10,71 26,10 45,-22 45,-73 0,-41 1,-43 30,-43 20,0 30,5 30,15 0,17 25,20 35,5 3,-5 22,-10 41,-10 27,0 37,5 46,25 6,14 15,25 20,25 16,0 7,46 -15,72 -23,29 -77,49 -77,29 z"
       id="path62"
       style="fill:url(#linearGradient135)" />
    <path
       d="m 4018,7454 c -5,-4 -8,-23 -8,-43 0,-25 3,-32 11,-24 6,6 9,25 7,43 -2,17 -6,28 -10,24 z"
       id="path63"
       style="fill:url(#linearGradient136)" />
    <path
       d="m 10642,7448 c 5,-15 28,-18 29,-3 0,6 -7,12 -17,13 -10,3 -15,-1 -12,-10 z"
       id="path64"
       style="fill:url(#linearGradient137)" />
    <path
       d="m 2670,7435 c -10,-13 -10,-19 4,-33 11,-13 16,-37 16,-85 0,-36 5,-69 10,-72 19,-12 11,-26 -9,-16 -11,6 -21,26 -25,49 -7,47 -25,65 -63,60 -39,-4 -45,-38 -7,-35 27,2 28,1 26,-50 -1,-63 14,-80 58,-64 17,5 37,8 45,5 16,-7 39,31 28,49 -4,6 -10,32 -14,57 -19,119 -23,131 -39,140 -13,7 -22,5 -30,-5 z"
       id="path65"
       style="fill:url(#linearGradient138)" />
    <path
       d="m 3213,7424 c -3,-8 -1,-26 6,-40 6,-14 11,-43 11,-64 0,-36 3,-40 24,-40 31,0 40,14 21,30 -10,8 -15,31 -15,71 0,53 -2,59 -20,59 -11,0 -23,-7 -27,-16 z"
       id="path66"
       style="fill:url(#linearGradient139)" />
    <path
       d="m 3313,7413 c -34,-23 -33,-94 2,-117 35,-23 66,-20 98,9 72,68 -19,165 -100,108 z m 72,-27 c 20,-30 11,-76 -16,-76 -21,0 -39,28 -39,63 0,44 30,51 55,13 z"
       id="path67"
       style="fill:url(#linearGradient140)" />
    <path
       d="m 10358,7405 c -22,-20 -26,-32 -25,-72 3,-56 10,-71 44,-84 32,-12 19,-32 -18,-27 -31,5 -36,-1 -17,-20 16,-16 63,-15 75,1 23,29 23,62 0,79 -16,13 -19,20 -10,26 6,4 16,20 22,35 18,47 33,32 29,-30 -3,-54 -1,-58 20,-61 20,-3 22,1 22,40 1,47 21,84 40,73 8,-5 10,-21 5,-49 -15,-91 -16,-91 40,-93 37,-2 53,2 63,15 11,15 14,14 34,-6 15,-14 22,-33 21,-57 -1,-39 14,-46 40,-17 14,16 14,21 -9,67 -28,59 -29,68 -8,100 l 16,25 25,-26 c 20,-22 23,-33 18,-61 -5,-26 -2,-35 12,-40 10,-4 22,-12 26,-20 11,-18 62,-17 77,2 18,22 28,19 57,-16 18,-22 33,-29 51,-27 27,3 44,28 19,28 -8,0 -22,12 -32,26 -16,24 -16,26 1,39 14,9 22,10 36,2 27,-18 45,5 30,38 -14,31 -30,32 -42,3 -6,-17 -9,-18 -9,-6 -1,25 -21,32 -39,14 -15,-15 -18,-14 -43,10 -17,16 -34,24 -44,20 -14,-5 -14,-8 1,-31 14,-21 14,-30 4,-55 -15,-35 -45,-40 -53,-8 -3,11 0,36 8,55 13,30 13,35 -2,40 -9,4 -19,1 -21,-5 -7,-21 -30,-13 -34,11 -4,28 -58,37 -78,13 -16,-20 -40,-21 -40,-2 0,22 -17,28 -40,16 -16,-9 -20,-21 -20,-65 0,-29 -4,-56 -9,-60 -14,-8 -24,32 -17,70 4,18 2,44 -4,59 -9,25 -13,26 -86,26 -54,0 -82,4 -94,15 -14,13 -19,12 -42,-10 z"
       id="path68"
       style="fill:url(#linearGradient141)" />
    <path
       d="m 10856,7404 c -9,-23 2,-34 34,-34 41,0 46,16 11,35 -37,19 -37,19 -45,-1 z"
       id="path69"
       style="fill:url(#linearGradient142)" />
    <path
       d="m 3068,7402 -78,-3 v -34 c 0,-19 5,-37 10,-40 6,-3 10,-23 10,-44 0,-42 19,-68 37,-50 7,7 9,34 6,69 l -6,58 38,11 c 21,6 42,8 47,5 16,-10 8,-32 -17,-48 -28,-18 -31,-34 -12,-59 10,-14 21,-16 58,-11 l 47,6 -6,67 c -2,36 -5,66 -6,67 -6,6 -65,9 -128,6 z m 92,-109 c -1,-24 -2,-26 -11,-10 -5,9 -7,22 -4,27 10,17 15,11 15,-17 z"
       id="path70"
       style="fill:url(#linearGradient143)" />
    <path
       d="m 2384,7348 c 4,-29 12,-58 18,-65 6,-7 11,-41 12,-76 1,-58 2,-62 25,-62 27,0 53,31 36,43 -13,9 -36,162 -28,191 5,19 1,21 -32,21 h -38 z"
       id="path71"
       style="fill:url(#linearGradient144)" />
    <path
       d="m 6082,7370 c -67,-3 -122,-8 -122,-12 0,-5 0,-14 0,-21 0,-8 19,-27 43,-44 23,-17 101,-80 173,-139 72,-60 175,-143 228,-184 54,-41 132,-102 174,-136 114,-90 180,-134 200,-134 15,0 302,205 322,230 3,3 46,37 95,75 50,38 150,119 224,180 73,60 144,118 157,128 13,10 24,27 24,36 0,16 -19,18 -212,24 -238,8 -1118,6 -1306,-3 z"
       id="path72"
       style="fill:url(#linearGradient145)" />
    <path
       d="m 2850,7350 c -11,-11 -20,-24 -20,-30 0,-5 -11,2 -25,15 -23,24 -55,34 -55,18 0,-5 7,-17 15,-27 8,-11 15,-38 15,-61 0,-52 9,-62 32,-33 17,23 18,23 49,5 39,-22 52,-14 33,21 -19,37 -18,78 3,86 26,10 36,-8 35,-63 -1,-28 2,-51 6,-51 11,0 62,57 62,70 0,6 -13,25 -29,41 -36,36 -90,40 -121,9 z"
       id="path73"
       style="fill:url(#linearGradient146)" />
    <path
       d="m 11095,7289 c -18,-19 -18,-21 -1,-54 15,-28 16,-37 7,-49 -29,-35 23,-50 54,-16 16,17 16,23 4,52 -7,18 -17,36 -23,40 -6,4 -7,11 -2,15 5,4 11,2 13,-4 7,-20 23,-15 23,6 0,35 -48,41 -75,10 z"
       id="path74"
       style="fill:url(#linearGradient147)" />
    <path
       d="m 2552,7238 c -6,-6 -12,-17 -12,-24 0,-6 -7,-17 -15,-24 -19,-16 -10,-30 19,-30 28,0 69,42 64,67 -4,22 -38,29 -56,11 z"
       id="path75"
       style="fill:url(#linearGradient148)" />
  </g>
</svg>
